<mxfile host="Electron" modified="2024-04-01T01:34:52.396Z" agent="Mozilla/5.0 (X11; Linux x86_64) AppleWebKit/537.36 (KHTML, like Gecko) draw.io/24.1.0 Chrome/120.0.6099.109 Electron/28.1.0 Safari/537.36" etag="3-aqMiWNJgnI2UTEmAlr" version="24.1.0" type="device">
  <diagram name="PÃ¡gina-1" id="E-DP9fMv0TR5NF7smadX">
    <mxGraphModel dx="455" dy="281" grid="1" gridSize="6" guides="1" tooltips="1" connect="1" arrows="1" fold="1" page="1" pageScale="1" pageWidth="700" pageHeight="700" math="1" shadow="0">
      <root>
        <mxCell id="0" />
        <mxCell id="1" parent="0" />
        <mxCell id="6FX0mefP02A3c6l39rLS-6" value="" style="rounded=1;whiteSpace=wrap;html=1;rotation=45;fillColor=#FF9999;dashed=1;dashPattern=1 1;strokeWidth=4;arcSize=50;strokeColor=#FF0000;" parent="1" vertex="1">
          <mxGeometry x="-73" y="384.43" width="720.87" height="60" as="geometry" />
        </mxCell>
        <mxCell id="GvZRkOdXiB6BV7RRrDBN-7" value="" style="endArrow=block;html=1;rounded=0;strokeWidth=3;endFill=1;endSize=4;" parent="1" edge="1">
          <mxGeometry width="50" height="50" relative="1" as="geometry">
            <mxPoint x="24" y="654" as="sourcePoint" />
            <mxPoint x="684" y="654" as="targetPoint" />
          </mxGeometry>
        </mxCell>
        <mxCell id="UwKL6i0-eS95Wib7501s-3" value="" style="endArrow=none;html=1;rounded=0;strokeWidth=2;" parent="1" edge="1">
          <mxGeometry width="50" height="50" relative="1" as="geometry">
            <mxPoint x="168" y="666" as="sourcePoint" />
            <mxPoint x="168" y="656" as="targetPoint" />
          </mxGeometry>
        </mxCell>
        <mxCell id="UwKL6i0-eS95Wib7501s-5" value="" style="endArrow=none;html=1;rounded=0;strokeWidth=2;" parent="1" edge="1">
          <mxGeometry width="50" height="50" relative="1" as="geometry">
            <mxPoint x="288" y="666" as="sourcePoint" />
            <mxPoint x="288" y="656" as="targetPoint" />
          </mxGeometry>
        </mxCell>
        <mxCell id="UwKL6i0-eS95Wib7501s-7" value="" style="endArrow=none;html=1;rounded=0;strokeWidth=2;" parent="1" edge="1">
          <mxGeometry width="50" height="50" relative="1" as="geometry">
            <mxPoint x="408" y="666" as="sourcePoint" />
            <mxPoint x="408" y="656" as="targetPoint" />
          </mxGeometry>
        </mxCell>
        <mxCell id="UwKL6i0-eS95Wib7501s-9" value="" style="endArrow=none;html=1;rounded=0;strokeWidth=2;" parent="1" edge="1">
          <mxGeometry width="50" height="50" relative="1" as="geometry">
            <mxPoint x="528" y="666" as="sourcePoint" />
            <mxPoint x="528" y="656" as="targetPoint" />
          </mxGeometry>
        </mxCell>
        <mxCell id="UwKL6i0-eS95Wib7501s-12" value="" style="endArrow=none;html=1;rounded=0;strokeWidth=2;" parent="1" edge="1">
          <mxGeometry width="50" height="50" relative="1" as="geometry">
            <mxPoint x="648" y="666" as="sourcePoint" />
            <mxPoint x="648" y="656" as="targetPoint" />
          </mxGeometry>
        </mxCell>
        <mxCell id="UwKL6i0-eS95Wib7501s-18" value="&lt;font face=&quot;SFMono-Regular, Menlo, Monaco, Consolas, Liberation Mono, Courier New, monospace&quot;&gt;\(1\)&lt;/font&gt;" style="text;whiteSpace=wrap;html=1;align=center;verticalAlign=middle;fontColor=#000000;labelBackgroundColor=none;fontSize=20;" parent="1" vertex="1">
          <mxGeometry x="153" y="670" width="30" height="20" as="geometry" />
        </mxCell>
        <mxCell id="UwKL6i0-eS95Wib7501s-20" value="&lt;font face=&quot;SFMono-Regular, Menlo, Monaco, Consolas, Liberation Mono, Courier New, monospace&quot;&gt;\(2\)&lt;/font&gt;" style="text;whiteSpace=wrap;html=1;align=center;verticalAlign=middle;fontColor=#000000;labelBackgroundColor=none;fontSize=20;" parent="1" vertex="1">
          <mxGeometry x="273" y="670" width="30" height="20" as="geometry" />
        </mxCell>
        <mxCell id="UwKL6i0-eS95Wib7501s-22" value="&lt;font face=&quot;SFMono-Regular, Menlo, Monaco, Consolas, Liberation Mono, Courier New, monospace&quot;&gt;\(3\)&lt;/font&gt;" style="text;whiteSpace=wrap;html=1;align=center;verticalAlign=middle;fontColor=#000000;labelBackgroundColor=none;fontSize=20;" parent="1" vertex="1">
          <mxGeometry x="393" y="670" width="30" height="20" as="geometry" />
        </mxCell>
        <mxCell id="UwKL6i0-eS95Wib7501s-27" value="&lt;font face=&quot;SFMono-Regular, Menlo, Monaco, Consolas, Liberation Mono, Courier New, monospace&quot;&gt;\(5\)&lt;/font&gt;" style="text;whiteSpace=wrap;html=1;align=center;verticalAlign=middle;fontColor=#000000;labelBackgroundColor=none;fontSize=20;" parent="1" vertex="1">
          <mxGeometry x="633" y="670" width="30" height="20" as="geometry" />
        </mxCell>
        <mxCell id="UwKL6i0-eS95Wib7501s-42" value="" style="ellipse;whiteSpace=wrap;html=1;aspect=fixed;fillColor=#0000FF;strokeColor=#0000FF;" parent="1" vertex="1">
          <mxGeometry x="164" y="530" width="8" height="8" as="geometry" />
        </mxCell>
        <mxCell id="VGv6KLICNvy4Usyk2UPB-1" value="" style="endArrow=block;html=1;rounded=0;strokeWidth=3;endFill=1;endSize=4;" parent="1" edge="1">
          <mxGeometry width="50" height="50" relative="1" as="geometry">
            <mxPoint x="48" y="678" as="sourcePoint" />
            <mxPoint x="48" y="18" as="targetPoint" />
          </mxGeometry>
        </mxCell>
        <mxCell id="VGv6KLICNvy4Usyk2UPB-2" value="" style="endArrow=none;html=1;rounded=0;strokeWidth=2;" parent="1" edge="1">
          <mxGeometry width="50" height="50" relative="1" as="geometry">
            <mxPoint x="48" y="534" as="sourcePoint" />
            <mxPoint x="36" y="534" as="targetPoint" />
          </mxGeometry>
        </mxCell>
        <mxCell id="VGv6KLICNvy4Usyk2UPB-7" value="&lt;font face=&quot;SFMono-Regular, Menlo, Monaco, Consolas, Liberation Mono, Courier New, monospace&quot;&gt;\(1\)&lt;/font&gt;" style="text;whiteSpace=wrap;html=1;align=center;verticalAlign=middle;fontColor=#000000;labelBackgroundColor=none;fontSize=20;" parent="1" vertex="1">
          <mxGeometry x="9" y="524" width="30" height="20" as="geometry" />
        </mxCell>
        <mxCell id="VGv6KLICNvy4Usyk2UPB-8" value="&lt;font face=&quot;SFMono-Regular, Menlo, Monaco, Consolas, Liberation Mono, Courier New, monospace&quot;&gt;\(2\)&lt;/font&gt;" style="text;whiteSpace=wrap;html=1;align=center;verticalAlign=middle;fontColor=#000000;labelBackgroundColor=none;fontSize=20;" parent="1" vertex="1">
          <mxGeometry x="9" y="404" width="30" height="20" as="geometry" />
        </mxCell>
        <mxCell id="VGv6KLICNvy4Usyk2UPB-9" value="&lt;font face=&quot;SFMono-Regular, Menlo, Monaco, Consolas, Liberation Mono, Courier New, monospace&quot;&gt;\(3\)&lt;/font&gt;" style="text;whiteSpace=wrap;html=1;align=center;verticalAlign=middle;fontColor=#000000;labelBackgroundColor=none;fontSize=20;" parent="1" vertex="1">
          <mxGeometry x="9" y="284" width="30" height="20" as="geometry" />
        </mxCell>
        <mxCell id="VGv6KLICNvy4Usyk2UPB-11" value="&lt;font face=&quot;SFMono-Regular, Menlo, Monaco, Consolas, Liberation Mono, Courier New, monospace&quot;&gt;\(5\)&lt;/font&gt;" style="text;whiteSpace=wrap;html=1;align=center;verticalAlign=middle;fontColor=#000000;labelBackgroundColor=none;fontSize=20;" parent="1" vertex="1">
          <mxGeometry x="9" y="44" width="30" height="20" as="geometry" />
        </mxCell>
        <mxCell id="VGv6KLICNvy4Usyk2UPB-12" value="" style="endArrow=none;html=1;rounded=0;strokeWidth=2;" parent="1" edge="1">
          <mxGeometry width="50" height="50" relative="1" as="geometry">
            <mxPoint x="48" y="414" as="sourcePoint" />
            <mxPoint x="36" y="414" as="targetPoint" />
          </mxGeometry>
        </mxCell>
        <mxCell id="VGv6KLICNvy4Usyk2UPB-13" value="" style="endArrow=none;html=1;rounded=0;strokeWidth=2;" parent="1" edge="1">
          <mxGeometry width="50" height="50" relative="1" as="geometry">
            <mxPoint x="48" y="294" as="sourcePoint" />
            <mxPoint x="36" y="294" as="targetPoint" />
          </mxGeometry>
        </mxCell>
        <mxCell id="VGv6KLICNvy4Usyk2UPB-14" value="" style="endArrow=none;html=1;rounded=0;strokeWidth=2;" parent="1" edge="1">
          <mxGeometry width="50" height="50" relative="1" as="geometry">
            <mxPoint x="48" y="174" as="sourcePoint" />
            <mxPoint x="36" y="174" as="targetPoint" />
          </mxGeometry>
        </mxCell>
        <mxCell id="VGv6KLICNvy4Usyk2UPB-15" value="" style="endArrow=none;html=1;rounded=0;strokeWidth=2;" parent="1" edge="1">
          <mxGeometry width="50" height="50" relative="1" as="geometry">
            <mxPoint x="48" y="54" as="sourcePoint" />
            <mxPoint x="36" y="54" as="targetPoint" />
          </mxGeometry>
        </mxCell>
        <mxCell id="VGv6KLICNvy4Usyk2UPB-16" value="" style="ellipse;whiteSpace=wrap;html=1;aspect=fixed;fillColor=#0000FF;strokeColor=#0000FF;" parent="1" vertex="1">
          <mxGeometry x="284" y="530" width="8" height="8" as="geometry" />
        </mxCell>
        <mxCell id="VGv6KLICNvy4Usyk2UPB-17" value="" style="ellipse;whiteSpace=wrap;html=1;aspect=fixed;fillColor=#0000FF;strokeColor=#0000FF;" parent="1" vertex="1">
          <mxGeometry x="404" y="530" width="8" height="8" as="geometry" />
        </mxCell>
        <mxCell id="VGv6KLICNvy4Usyk2UPB-18" value="" style="ellipse;whiteSpace=wrap;html=1;aspect=fixed;fillColor=#0000FF;strokeColor=#0000FF;" parent="1" vertex="1">
          <mxGeometry x="524" y="530" width="8" height="8" as="geometry" />
        </mxCell>
        <mxCell id="VGv6KLICNvy4Usyk2UPB-19" value="" style="ellipse;whiteSpace=wrap;html=1;aspect=fixed;fillColor=#0000FF;strokeColor=#0000FF;" parent="1" vertex="1">
          <mxGeometry x="644" y="530" width="8" height="8" as="geometry" />
        </mxCell>
        <mxCell id="VGv6KLICNvy4Usyk2UPB-20" value="" style="ellipse;whiteSpace=wrap;html=1;aspect=fixed;fillColor=#0000FF;strokeColor=#0000FF;" parent="1" vertex="1">
          <mxGeometry x="164" y="650" width="8" height="8" as="geometry" />
        </mxCell>
        <mxCell id="VGv6KLICNvy4Usyk2UPB-21" value="" style="ellipse;whiteSpace=wrap;html=1;aspect=fixed;fillColor=#0000FF;strokeColor=#0000FF;" parent="1" vertex="1">
          <mxGeometry x="284" y="650" width="8" height="8" as="geometry" />
        </mxCell>
        <mxCell id="VGv6KLICNvy4Usyk2UPB-22" value="" style="ellipse;whiteSpace=wrap;html=1;aspect=fixed;fillColor=#0000FF;strokeColor=#0000FF;" parent="1" vertex="1">
          <mxGeometry x="404" y="650" width="8" height="8" as="geometry" />
        </mxCell>
        <mxCell id="VGv6KLICNvy4Usyk2UPB-23" value="" style="ellipse;whiteSpace=wrap;html=1;aspect=fixed;fillColor=#0000FF;strokeColor=#0000FF;" parent="1" vertex="1">
          <mxGeometry x="524" y="650" width="8" height="8" as="geometry" />
        </mxCell>
        <mxCell id="VGv6KLICNvy4Usyk2UPB-24" value="" style="ellipse;whiteSpace=wrap;html=1;aspect=fixed;fillColor=#0000FF;strokeColor=#0000FF;" parent="1" vertex="1">
          <mxGeometry x="644" y="650" width="8" height="8" as="geometry" />
        </mxCell>
        <mxCell id="VGv6KLICNvy4Usyk2UPB-25" value="" style="ellipse;whiteSpace=wrap;html=1;aspect=fixed;fillColor=#0000FF;strokeColor=#0000FF;" parent="1" vertex="1">
          <mxGeometry x="164" y="410" width="8" height="8" as="geometry" />
        </mxCell>
        <mxCell id="VGv6KLICNvy4Usyk2UPB-26" value="" style="ellipse;whiteSpace=wrap;html=1;aspect=fixed;fillColor=#0000FF;strokeColor=#0000FF;" parent="1" vertex="1">
          <mxGeometry x="284" y="410" width="8" height="8" as="geometry" />
        </mxCell>
        <mxCell id="VGv6KLICNvy4Usyk2UPB-27" value="" style="ellipse;whiteSpace=wrap;html=1;aspect=fixed;fillColor=#0000FF;strokeColor=#0000FF;" parent="1" vertex="1">
          <mxGeometry x="404" y="410" width="8" height="8" as="geometry" />
        </mxCell>
        <mxCell id="VGv6KLICNvy4Usyk2UPB-28" value="" style="ellipse;whiteSpace=wrap;html=1;aspect=fixed;fillColor=#0000FF;strokeColor=#0000FF;" parent="1" vertex="1">
          <mxGeometry x="524" y="410" width="8" height="8" as="geometry" />
        </mxCell>
        <mxCell id="VGv6KLICNvy4Usyk2UPB-29" value="" style="ellipse;whiteSpace=wrap;html=1;aspect=fixed;fillColor=#0000FF;strokeColor=#0000FF;" parent="1" vertex="1">
          <mxGeometry x="644" y="410" width="8" height="8" as="geometry" />
        </mxCell>
        <mxCell id="VGv6KLICNvy4Usyk2UPB-30" value="" style="ellipse;whiteSpace=wrap;html=1;aspect=fixed;fillColor=#0000FF;strokeColor=#0000FF;" parent="1" vertex="1">
          <mxGeometry x="164" y="290" width="8" height="8" as="geometry" />
        </mxCell>
        <mxCell id="VGv6KLICNvy4Usyk2UPB-31" value="" style="ellipse;whiteSpace=wrap;html=1;aspect=fixed;fillColor=#0000FF;strokeColor=#0000FF;" parent="1" vertex="1">
          <mxGeometry x="284" y="290" width="8" height="8" as="geometry" />
        </mxCell>
        <mxCell id="VGv6KLICNvy4Usyk2UPB-32" value="" style="ellipse;whiteSpace=wrap;html=1;aspect=fixed;fillColor=#0000FF;strokeColor=#0000FF;" parent="1" vertex="1">
          <mxGeometry x="404" y="290" width="8" height="8" as="geometry" />
        </mxCell>
        <mxCell id="VGv6KLICNvy4Usyk2UPB-33" value="" style="ellipse;whiteSpace=wrap;html=1;aspect=fixed;fillColor=#0000FF;strokeColor=#0000FF;" parent="1" vertex="1">
          <mxGeometry x="524" y="290" width="8" height="8" as="geometry" />
        </mxCell>
        <mxCell id="VGv6KLICNvy4Usyk2UPB-34" value="" style="ellipse;whiteSpace=wrap;html=1;aspect=fixed;fillColor=#0000FF;strokeColor=#0000FF;" parent="1" vertex="1">
          <mxGeometry x="644" y="290" width="8" height="8" as="geometry" />
        </mxCell>
        <mxCell id="VGv6KLICNvy4Usyk2UPB-35" value="" style="ellipse;whiteSpace=wrap;html=1;aspect=fixed;fillColor=#0000FF;strokeColor=#0000FF;" parent="1" vertex="1">
          <mxGeometry x="164" y="170" width="8" height="8" as="geometry" />
        </mxCell>
        <mxCell id="VGv6KLICNvy4Usyk2UPB-36" value="" style="ellipse;whiteSpace=wrap;html=1;aspect=fixed;fillColor=#0000FF;strokeColor=#0000FF;" parent="1" vertex="1">
          <mxGeometry x="284" y="170" width="8" height="8" as="geometry" />
        </mxCell>
        <mxCell id="VGv6KLICNvy4Usyk2UPB-37" value="" style="ellipse;whiteSpace=wrap;html=1;aspect=fixed;fillColor=#0000FF;strokeColor=#0000FF;" parent="1" vertex="1">
          <mxGeometry x="404" y="170" width="8" height="8" as="geometry" />
        </mxCell>
        <mxCell id="VGv6KLICNvy4Usyk2UPB-38" value="" style="ellipse;whiteSpace=wrap;html=1;aspect=fixed;fillColor=#0000FF;strokeColor=#0000FF;" parent="1" vertex="1">
          <mxGeometry x="524" y="170" width="8" height="8" as="geometry" />
        </mxCell>
        <mxCell id="VGv6KLICNvy4Usyk2UPB-39" value="" style="ellipse;whiteSpace=wrap;html=1;aspect=fixed;fillColor=#0000FF;strokeColor=#0000FF;" parent="1" vertex="1">
          <mxGeometry x="644" y="170" width="8" height="8" as="geometry" />
        </mxCell>
        <mxCell id="VGv6KLICNvy4Usyk2UPB-40" value="" style="ellipse;whiteSpace=wrap;html=1;aspect=fixed;fillColor=#0000FF;strokeColor=#0000FF;" parent="1" vertex="1">
          <mxGeometry x="164" y="50" width="8" height="8" as="geometry" />
        </mxCell>
        <mxCell id="VGv6KLICNvy4Usyk2UPB-41" value="" style="ellipse;whiteSpace=wrap;html=1;aspect=fixed;fillColor=#0000FF;strokeColor=#0000FF;" parent="1" vertex="1">
          <mxGeometry x="284" y="50" width="8" height="8" as="geometry" />
        </mxCell>
        <mxCell id="VGv6KLICNvy4Usyk2UPB-42" value="" style="ellipse;whiteSpace=wrap;html=1;aspect=fixed;fillColor=#0000FF;strokeColor=#0000FF;" parent="1" vertex="1">
          <mxGeometry x="404" y="50" width="8" height="8" as="geometry" />
        </mxCell>
        <mxCell id="VGv6KLICNvy4Usyk2UPB-43" value="" style="ellipse;whiteSpace=wrap;html=1;aspect=fixed;fillColor=#0000FF;strokeColor=#0000FF;" parent="1" vertex="1">
          <mxGeometry x="524" y="50" width="8" height="8" as="geometry" />
        </mxCell>
        <mxCell id="VGv6KLICNvy4Usyk2UPB-44" value="" style="ellipse;whiteSpace=wrap;html=1;aspect=fixed;fillColor=#0000FF;strokeColor=#0000FF;" parent="1" vertex="1">
          <mxGeometry x="644" y="50" width="8" height="8" as="geometry" />
        </mxCell>
        <mxCell id="VGv6KLICNvy4Usyk2UPB-45" value="" style="ellipse;whiteSpace=wrap;html=1;aspect=fixed;fillColor=#0000FF;strokeColor=#0000FF;" parent="1" vertex="1">
          <mxGeometry x="44" y="530" width="8" height="8" as="geometry" />
        </mxCell>
        <mxCell id="VGv6KLICNvy4Usyk2UPB-46" value="" style="ellipse;whiteSpace=wrap;html=1;aspect=fixed;fillColor=#0000FF;strokeColor=#0000FF;" parent="1" vertex="1">
          <mxGeometry x="44" y="650" width="8" height="8" as="geometry" />
        </mxCell>
        <mxCell id="VGv6KLICNvy4Usyk2UPB-47" value="" style="ellipse;whiteSpace=wrap;html=1;aspect=fixed;fillColor=#0000FF;strokeColor=#0000FF;" parent="1" vertex="1">
          <mxGeometry x="44" y="410" width="8" height="8" as="geometry" />
        </mxCell>
        <mxCell id="VGv6KLICNvy4Usyk2UPB-48" value="" style="ellipse;whiteSpace=wrap;html=1;aspect=fixed;fillColor=#0000FF;strokeColor=#0000FF;" parent="1" vertex="1">
          <mxGeometry x="44" y="290" width="8" height="8" as="geometry" />
        </mxCell>
        <mxCell id="VGv6KLICNvy4Usyk2UPB-49" value="" style="ellipse;whiteSpace=wrap;html=1;aspect=fixed;fillColor=#0000FF;strokeColor=#0000FF;" parent="1" vertex="1">
          <mxGeometry x="44" y="170" width="8" height="8" as="geometry" />
        </mxCell>
        <mxCell id="VGv6KLICNvy4Usyk2UPB-50" value="" style="ellipse;whiteSpace=wrap;html=1;aspect=fixed;fillColor=#0000FF;strokeColor=#0000FF;" parent="1" vertex="1">
          <mxGeometry x="44" y="50" width="8" height="8" as="geometry" />
        </mxCell>
        <mxCell id="UwKL6i0-eS95Wib7501s-24" value="&lt;font face=&quot;SFMono-Regular, Menlo, Monaco, Consolas, Liberation Mono, Courier New, monospace&quot;&gt;\(4\)&lt;/font&gt;" style="text;whiteSpace=wrap;html=1;align=center;verticalAlign=middle;fontColor=#000000;labelBackgroundColor=none;fontSize=20;" parent="1" vertex="1">
          <mxGeometry x="513" y="670" width="30" height="20" as="geometry" />
        </mxCell>
        <mxCell id="VGv6KLICNvy4Usyk2UPB-10" value="&lt;font face=&quot;SFMono-Regular, Menlo, Monaco, Consolas, Liberation Mono, Courier New, monospace&quot;&gt;\(4\)&lt;/font&gt;" style="text;whiteSpace=wrap;html=1;align=center;verticalAlign=middle;fontColor=#000000;labelBackgroundColor=none;fontSize=20;" parent="1" vertex="1">
          <mxGeometry x="9" y="164" width="30" height="20" as="geometry" />
        </mxCell>
      </root>
    </mxGraphModel>
  </diagram>
</mxfile>
